#!OML:ASF F:\twosubjects\two\Thursday\Session 1\justin.ASF
:FULLY-SPECIFIED
:DEGREES
575
root 12.4815 17.2057 -16.5738 5.58643 -75.7493 2.81434
lowerback 12.1673 1.61798 -1.24532
upperback 1.99705 2.08372 3.64205
thorax -4.90893 1.03636 4.19805
lowerneck -21.3308 9.30175 -1.25565
upperneck 10.5181 13.4824 -3.99868
head 6.8386 6.04018 0.494554
rclavicle -4.45278e-014 -3.97569e-014
rhumerus -34.2316 -30.4298 -60.8014
rradius 35.9547
rwrist -7.04975
rhand -15.4161 14.1766
rfingers 7.12502
rthumb 10.7634 -15.5276
lclavicle -4.45278e-014 -3.97569e-014
lhumerus -31.122 17.0376 76.1551
lradius 38.2698
lwrist -12.2707
lhand 0.823083 38.2569
lfingers 7.12502
lthumb 26.3785 66.442
rfemur -209.863 -163.094 201.626
rtibia 54.3922
rfoot -23.8328 2.68961
rtoes -1.00912
lfemur 154.225 167.911 161.602
ltibia 43.3315
lfoot -18.7234 -3.34422
ltoes -11.4001
576
root 12.4535 17.2851 -16.5744 4.99268 -75.7574 3.33066
lowerback 11.7289 1.64313 -1.28105
upperback 1.97502 2.11074 3.53386
thorax -4.68863 1.04959 4.10526
lowerneck -21.5587 9.23072 -1.32764
upperneck 10.9399 13.4207 -3.86015
head 6.99777 5.99943 0.56418
rclavicle -2.74323e-014 -3.02153e-014
rhumerus -34.2018 -30.8125 -60.7331
rradius 35.7704
rwrist -6.95847
rhand -15.4337 14.4751
rfingers 7.12502
rthumb 10.7465 -15.23
lclavicle -2.74323e-014 -3.02153e-014
lhumerus -31.0445 16.9882 76.1628
lradius 38.2927
lwrist -12.3729
lhand 1.47672 38.6405
lfingers 7.12502
lthumb 27.004 66.7303
rfemur -208.779 -163.445 201.518
rtibia 52.6778
rfoot -23.5868 1.91435
rtoes -2.7673
lfemur 155.546 168.413 161.547
ltibia 41.2836
lfoot -18.0483 -3.14675
ltoes -10.7922
577
root 12.4278 17.3446 -16.569 4.04898 -75.6867 4.29364
lowerback 11.1908 1.68019 -1.28709
upperback 1.87493 2.15764 3.29701
thorax -4.49007 1.07448 3.85865
lowerneck -21.5678 9.08963 -1.35336
upperneck 11.3195 13.2034 -3.48555
head 7.09169 5.91805 0.670828
rclavicle 3.45885e-014 2.06736e-014
rhumerus -34.5427 -31.3417 -60.5457
rradius 35.8244
rwrist -6.93617
rhand -15.3045 14.65
rfingers 7.12502
rthumb 10.8711 -15.0486
lclavicle 3.45885e-014 2.06736e-014
lhumerus -30.9391 16.6213 76.0778
lradius 38.1623
lwrist -12.5742
lhand 1.60472 38.3376
lfingers 7.12502
lthumb 27.1265 66.4083
rfemur -207.813 -163.627 201.317
rtibia 51.0177
rfoot -23.3805 1.09899
rtoes -4.94086
lfemur 156.743 169.008 161.37
ltibia 39.3002
lfoot -17.4822 -3.25536
ltoes -6.25047
578
root 12.4015 17.4069 -16.5692 4.39415 -75.6792 4.03788
lowerback 10.6883 1.70416 -1.26222
upperback 1.63645 2.20389 3.26275
thorax -4.46231 1.10354 3.80852
lowerneck -20.8724 8.89373 -1.40025
upperneck 11.102 12.9051 -3.37322
head 6.89518 5.80823 0.639156
rclavicle -3.02153e-014 9.54166e-015
rhumerus -34.9153 -31.2095 -60.3538
rradius 35.9098
rwrist -7.12887
rhand -15.1786 14.6415
rfingers 7.12502
rthumb 10.9925 -15.0507
lclavicle -3.02153e-014 9.54166e-015
lhumerus -31.1031 16.4572 76.0344
lradius 38.0989
lwrist -12.6645
lhand 1.39954 37.9945
lfingers 7.12502
lthumb 26.9302 66.0957
rfemur -206.9 -164.246 201.412
rtibia 49.3968
rfoot -23.2259 0.330456
rtoes -5.15327
lfemur 157.804 169.525 161.513
ltibia 37.3431
lfoot -16.8691 -3.11488
ltoes -3.38742
579
root 12.3711 17.478 -16.5758 4.85457 -75.8043 3.61539
lowerback 10.2319 1.79979 -1.34844
upperback 1.43202 2.33186 3.25282
thorax -4.43542 1.17396 3.8355
lowerneck -20.4027 8.75357 -1.25781
upperneck 11.0937 12.6638 -3.34506
head 6.82229 5.71196 0.578444
rclavicle 3.97569e-015 -1.74931e-014
rhumerus -35.241 -30.9504 -60.2482
rradius 35.9499
rwrist -7.22253
rhand -15.0356 14.3004
rfingers 7.12502
rthumb 11.1304 -15.3845
lclavicle 3.97569e-015 -1.74931e-014
lhumerus -31.2624 16.0855 76.0643
lradius 38.2282
lwrist -12.352
lhand 1.61048 38.3417
lfingers 7.12502
lthumb 27.132 66.4116
rfemur -206.014 -164.998 201.567
rtibia 47.8079
rfoot -23.0352 -0.419143
rtoes -5.47415
lfemur 158.889 169.838 161.684
ltibia 35.4105
lfoot -16.2469 -2.67217
ltoes -4.63362
580
root 12.3404 17.5419 -16.577 4.35102 -75.8686 4.14347
lowerback 9.68719 1.7678 -1.59521
upperback 1.38146 2.26808 3.2456
thorax -4.18915 1.14652 3.9878
lowerneck -20.8681 8.77561 -1.52936
upperneck 11.8813 12.7504 -2.87027
head 7.10459 5.75084 0.821203
rclavicle 1.19271e-014 6.36111e-015
rhumerus -35.1622 -30.7868 -60.3053
rradius 36.0297
rwrist -6.96764
rhand -14.5774 14.1453
rfingers 7.12502
rthumb 11.5723 -15.5152
lclavicle 1.19271e-014 6.36111e-015
lhumerus -31.2779 16.1202 76.0987
lradius 38.282
lwrist -12.198
lhand 1.55418 38.2543
lfingers 7.12502
lthumb 27.0782 66.3326
rfemur -205.159 -165.409 201.465
rtibia 46.2459
rfoot -22.696 -1.00267
rtoes -5.64368
lfemur 160.019 170.207 161.552
ltibia 33.5137
lfoot -15.819 -2.02041
ltoes -6.51817
581
root 12.3131 17.5874 -16.5732 4.29648 -75.8017 4.27344
lowerback 9.0416 1.53254 -1.66909
upperback 1.34282 1.95646 3.37519
thorax -3.85082 0.991274 4.21904
lowerneck -21.2239 8.87071 -2.17363
upperneck 12.4615 13.0188 -2.36693
head 7.27541 5.87177 1.13853
rclavicle 1.07344e-014 -7.95139e-015
rhumerus -34.668 -30.3776 -60.5276
rradius 36.0012
rwrist -6.66831
rhand -14.2135 14.4795
rfingers 7.12502
rthumb 11.9232 -15.161
lclavicle 1.07344e-014 -7.95139e-015
lhumerus -31.4068 16.7745 76.1194
lradius 38.23
lwrist -12.3568
lhand 0.920079 37.5329
lfingers 7.12502
lthumb 26.4714 65.7041
rfemur -204.351 -165.716 201.466
rtibia 44.7447
rfoot -22.4078 -1.55111
rtoes -5.23022
lfemur 161.093 170.667 161.495
ltibia 31.6129
lfoot -15.2765 -1.21704
ltoes -7.15322
582
root 12.2862 17.6244 -16.57 4.31844 -75.8436 4.37146
lowerback 8.4125 1.41068 -1.68037
upperback 1.19306 1.80204 3.36781
thorax -3.64231 0.916472 4.24556
lowerneck -20.9106 8.90757 -2.12735
upperneck 12.4482 13.057 -2.42668
head 7.22769 5.89251 1.10287
rclavicle 1.78906e-014 -2.22639e-014
rhumerus -34.5206 -30.0403 -60.7767
rradius 36.0096
rwrist -6.7701
rhand -14.4032 14.5102
rfingers 7.12502
rthumb 11.7403 -15.1408
lclavicle 1.78906e-014 -2.22639e-014
lhumerus -31.6115 16.8755 76.0218
lradius 38.2775
lwrist -12.2073
lhand 0.880468 37.3841
lfingers 7.12502
lthumb 26.4334 65.561
rfemur -203.607 -166.233 201.464
rtibia 43.3401
rfoot -22.3356 -2.13386
rtoes -5.31838
lfemur 162.12 171.02 161.45
ltibia 29.6869
lfoot -14.5877 -0.444439
ltoes -8.2143
583
root 12.2586 17.663 -16.5671 4.01544 -75.9112 4.78599
lowerback 7.87845 1.37463 -1.79245
upperback 0.977004 1.75411 3.30748
thorax -3.56577 0.899023 4.25811
lowerneck -20.5161 8.88665 -1.92565
upperneck 12.5111 12.9854 -2.53223
head 7.20552 5.86234 1.01661
rclavicle 1.39149e-014 -3.18055e-015
rhumerus -34.7244 -29.8152 -60.7328
rradius 36.1222
rwrist -6.87065
rhand -14.5342 14.1461
rfingers 7.12502
rthumb 11.614 -15.5121
lclavicle 1.39149e-014 -3.18055e-015
lhumerus -31.8492 16.664 75.9141
lradius 38.3667
lwrist -11.8649
lhand 1.28947 37.6499
lfingers 7.12502
lthumb 26.8249 65.7673
rfemur -202.845 -166.886 201.307
rtibia 42.0136
rfoot -22.4012 -2.43115
rtoes -3.68266
lfemur 163.153 171.646 161.35
ltibia 27.8228
lfoot -14.2902 0.111155
ltoes -10.3885
584
root 12.235 17.7021 -16.5668 4.19881 -75.769 4.66056
lowerback 7.41488 1.31051 -1.7316
upperback 0.789067 1.6821 3.28237
thorax -3.49267 0.865912 4.21074
lowerneck -20.3556 8.80874 -1.81698
upperneck 12.7998 12.8486 -2.43885
head 7.27479 5.80417 1.01655
rclavicle -2.48481e-014 -7.95139e-015
rhumerus -34.9137 -29.5787 -60.6173
rradius 36.1481
rwrist -6.97535
rhand -14.667 14.188
rfingers 7.12502
rthumb 11.486 -15.4773
lclavicle -2.48481e-014 -7.95139e-015
lhumerus -32.0168 16.3625 75.8707
lradius 38.4442
lwrist -11.6381
lhand 1.27264 37.5069
lfingers 7.12502
lthumb 26.8088 65.6268
rfemur -202.056 -167.436 201.31
rtibia 40.7302
rfoot -22.4912 -2.80157
rtoes -1.5954
lfemur 164.132 172.434 161.436
ltibia 26.0559
lfoot -14.161 0.263497
ltoes -9.89541
